<svg width="530" height="282" viewBox="0 0 530 282" fill="none" xmlns="http://www.w3.org/2000/svg">
<path d="M80.8494 240.957C69.0802 249.449 65.7447 264.39 65.7447 264.39C65.7447 264.39 81.4908 265.563 93.2599 257.071C105.029 248.58 108.365 233.639 108.365 233.639C108.365 233.639 92.6186 232.466 80.8494 240.957Z" fill="#F1F1F1"/>
<path d="M85.7519 244.944C80.0956 258.055 65.9293 264.812 65.9293 264.812C65.9293 264.812 60.9339 250.311 66.5902 237.2C72.2466 224.089 86.4128 217.332 86.4128 217.332C86.4128 217.332 91.4083 231.833 85.7519 244.944Z" fill="#F1F1F1"/>
<path d="M424.361 207.042C423.11 198.889 422.78 190.628 423.376 182.406L424.361 168.798C418.932 179.254 420.159 193.016 424.361 207.042V207.042Z" fill="#CACACA"/>
<path d="M428.594 209.318C427.992 204.453 427.834 199.546 428.12 194.654L428.594 186.554C425.982 192.778 426.572 200.969 428.594 209.318Z" fill="#CACACA"/>
<path d="M447.412 219.335V223.888C447.41 224.25 447.26 224.596 446.996 224.852C446.732 225.108 446.374 225.252 446 225.254H443.648C443.587 225.254 443.525 225.266 443.468 225.288C443.411 225.311 443.359 225.345 443.315 225.387C443.272 225.429 443.237 225.48 443.213 225.535C443.19 225.59 443.178 225.65 443.178 225.709V263.043C443.176 263.404 443.027 263.751 442.763 264.006C442.498 264.262 442.141 264.407 441.767 264.408H413.074C412.7 264.408 412.341 264.264 412.076 264.008C411.812 263.752 411.663 263.405 411.663 263.043V225.709C411.662 225.589 411.613 225.473 411.525 225.388C411.436 225.303 411.317 225.254 411.192 225.254H408.37C407.996 225.254 407.637 225.11 407.373 224.854C407.108 224.598 406.959 224.25 406.959 223.888V219.335C406.959 219.156 406.995 218.978 407.066 218.812C407.137 218.647 407.241 218.496 407.372 218.369C407.503 218.242 407.658 218.142 407.83 218.073C408.001 218.005 408.185 217.969 408.37 217.97H446C446.374 217.971 446.733 218.115 446.997 218.371C447.261 218.627 447.41 218.974 447.412 219.335V219.335Z" fill="#F2F2F2"/>
<path d="M443.22 226.21H411.705V227.576H443.22V226.21Z" fill="#E6E6E6"/>
<path d="M443.178 246.309C432.632 250.533 421.972 250.579 411.192 246.309V236.686C421.569 233.313 432.801 233.313 443.178 236.686V246.309Z" fill="#E6E6E6"/>
<path d="M266.531 99.1826C290.073 99.1826 309.157 80.7106 309.157 57.9242C309.157 35.1379 290.073 16.6659 266.531 16.6659C242.989 16.6659 223.904 35.1379 223.904 57.9242C223.904 80.7106 242.989 99.1826 266.531 99.1826Z" fill="#FEB8B8"/>
<path d="M306.344 22.3299C299.971 12.3133 289.995 4.93243 278.337 1.60811L273.104 5.30435V0.504886C270.304 0.0901113 267.47 -0.0696717 264.64 0.0276382L260.125 3.98159V0.356134C253.44 1.16015 247 3.29603 241.211 6.62909C235.421 9.96216 230.408 14.4201 226.488 19.7218C216.683 33.4028 215.028 52.4359 224.672 66.2267C227.319 58.3522 230.532 50.9637 233.179 43.09C235.26 43.3645 237.369 43.3744 239.452 43.1194L242.673 35.8454L243.573 42.8116C253.556 41.97 268.362 40.1215 277.826 38.4281L276.906 33.0838L282.411 37.5246C285.311 36.8787 287.032 36.2925 286.89 35.8447C293.929 46.8276 302.543 53.8423 309.58 64.8252C312.254 49.3387 315.33 36.4619 306.344 22.3299Z" fill="#2F2E41"/>
<path d="M358.208 164.022C356.742 155.486 355.23 146.787 351.132 139.098C348.438 134.061 344.162 129.262 338.398 128.266C337.263 128.168 336.147 127.918 335.083 127.523C333.394 126.735 310.698 114.195 307.09 112.011C303.993 110.136 299.104 106.664 296.638 106.664C294.158 106.611 284.648 108.754 247.529 105.945C247.529 105.945 237.332 109.835 229.441 114.553C229.322 114.476 190.915 134.439 189.472 134.386C186.739 134.275 184.199 135.968 182.633 138.101C181.067 140.233 180.332 142.873 179.563 145.426C187.951 163.508 195.627 181.613 204.016 199.695C204.409 200.376 204.618 201.142 204.623 201.922C204.454 202.731 204.097 203.493 203.579 204.149C199.465 210.545 199.596 218.591 200.045 226.109C200.495 233.627 201.051 241.568 197.58 248.307C196.636 250.157 195.408 251.851 194.51 253.701C192.407 257.891 191.647 271.293 192.875 275.795L346.767 280.062C343.458 271.258 358.208 164.022 358.208 164.022Z" fill="#F50057"/>
<path d="M166.26 200.496C165.953 202.646 165.922 204.825 166.168 206.982L168.374 237.642C168.581 240.531 168.785 243.414 169.065 246.296C169.594 251.89 170.385 257.44 171.366 262.982C171.388 263.768 171.732 264.515 172.322 265.056C172.912 265.598 173.7 265.891 174.513 265.871C184.222 267.86 194.254 267.78 204.163 267.239C219.283 266.422 257.968 264.876 260.331 261.905C262.695 258.933 261.317 254.126 258.236 251.723C255.154 249.321 204.104 243.462 204.104 243.462C204.603 239.636 206.108 236.033 207.535 232.401C210.099 225.958 212.494 219.304 212.54 212.402C212.586 205.5 209.899 198.244 204.058 194.29C199.253 191.044 193.067 190.442 187.212 190.575C182.952 190.694 175.591 189.706 171.7 191.318C168.621 192.631 166.836 197.578 166.26 200.496Z" fill="#FBBEBE"/>
<path d="M179.119 145.976C178.371 146.734 177.792 147.631 177.415 148.614C171.211 162.147 167.547 176.642 166.593 191.419C166.61 192.14 166.438 192.853 166.094 193.492C165.755 193.917 165.378 194.312 164.966 194.673C164.607 195.085 164.336 195.561 164.167 196.074C163.998 196.587 163.936 197.128 163.983 197.664C164.03 198.201 164.186 198.723 164.441 199.202C164.697 199.68 165.048 200.105 165.473 200.452C165.543 200.509 165.614 200.564 165.688 200.616C166.954 198.31 169.986 197.556 172.68 197.355C185.582 196.367 198.185 202.177 211.125 201.739C210.212 198.685 208.899 195.751 208.155 192.661C204.862 178.939 213.075 164 208.04 150.783C207.034 148.139 205.353 145.539 202.706 144.38C201.609 143.952 200.462 143.658 199.29 143.505C196.02 142.933 189.511 140.489 186.35 141.469C185.183 141.834 184.723 142.895 183.755 143.537C182.286 144.446 180.337 144.78 179.119 145.976Z" fill="#F50057"/>
<path d="M358.3 191.318C354.409 189.706 347.048 190.694 342.788 190.575C336.933 190.442 330.747 191.044 325.942 194.29C320.101 198.244 317.414 205.5 317.46 212.402C317.506 219.304 319.901 225.958 322.465 232.401C323.892 236.033 325.397 239.636 325.896 243.462C325.896 243.462 274.846 249.32 271.764 251.723C268.683 254.126 267.305 258.933 269.669 261.905C272.032 264.876 345.778 267.86 355.487 265.871C356.3 265.891 357.088 265.598 357.678 265.056C358.268 264.514 358.612 263.768 358.634 262.982C359.615 257.44 360.406 251.89 360.935 246.296C361.215 243.414 361.419 240.531 361.626 237.642L363.832 206.982C364.077 204.825 364.047 202.646 363.74 200.496C363.164 197.578 361.379 192.631 358.3 191.318Z" fill="#FBBEBE"/>
<path d="M346.245 143.537C345.277 142.896 344.817 141.834 343.65 141.469C340.489 140.489 333.98 142.933 330.71 143.505C329.538 143.658 328.391 143.952 327.294 144.38C324.647 145.539 322.966 148.139 321.96 150.784C316.925 164 325.138 178.939 321.845 192.661C321.101 195.751 319.788 198.685 318.875 201.739C331.815 202.177 344.418 196.367 357.32 197.355C360.014 197.556 363.046 198.31 364.312 200.616C364.386 200.564 364.457 200.509 364.527 200.452C364.952 200.105 365.303 199.68 365.559 199.202C365.814 198.723 365.97 198.201 366.017 197.664C366.064 197.128 366.002 196.587 365.833 196.074C365.664 195.561 365.393 195.085 365.034 194.673C364.622 194.313 364.245 193.917 363.906 193.492C363.562 192.853 363.39 192.14 363.407 191.419C362.453 176.642 358.789 162.147 352.585 148.614C352.208 147.631 351.629 146.734 350.881 145.976C349.663 144.78 347.714 144.446 346.245 143.537Z" fill="#F50057"/>
<path d="M253.906 267.335C260.26 267.335 265.411 262.35 265.411 256.2C265.411 250.05 260.26 245.064 253.906 245.064C247.552 245.064 242.401 250.05 242.401 256.2C242.401 262.35 247.552 267.335 253.906 267.335Z" fill="#FBBEBE"/>
<path d="M279.381 267.335C285.735 267.335 290.886 262.35 290.886 256.2C290.886 250.05 285.735 245.064 279.381 245.064C273.027 245.064 267.876 250.05 267.876 256.2C267.876 262.35 273.027 267.335 279.381 267.335Z" fill="#FBBEBE"/>
<path d="M350.398 281.292H192.338C190.493 281.29 188.723 280.58 187.419 279.317C186.114 278.054 185.38 276.342 185.377 274.556V181.743C185.38 179.957 186.114 178.244 187.419 176.981C188.723 175.718 190.493 175.008 192.338 175.006H350.398C352.243 175.008 354.013 175.718 355.318 176.981C356.622 178.244 357.357 179.957 357.359 181.743V274.556C357.357 276.342 356.622 278.054 355.318 279.317C354.013 280.58 352.243 281.29 350.398 281.292Z" fill="#3F3D56"/>
<path d="M270.985 232.607C273.528 232.607 275.59 230.611 275.59 228.149C275.59 225.687 273.528 223.692 270.985 223.692C268.441 223.692 266.379 225.687 266.379 228.149C266.379 230.611 268.441 232.607 270.985 232.607Z" fill="white"/>
<path d="M530 262.572H0V278.336H31.3489V282H498.663V278.336H530V262.572Z" fill="#F1F1F1"/>
<path d="M227.333 73.302C220.484 73.302 214.931 67.4913 214.931 60.3234V53.834C214.931 46.666 220.484 40.8553 227.333 40.8553V73.302H227.333Z" fill="#F50057"/>
<path d="M306.488 40.8553C313.338 40.8553 318.89 46.666 318.89 53.834V60.3233C318.89 67.4913 313.338 73.302 306.488 73.302V40.8553Z" fill="#F50057"/>
<path d="M312.987 54.8537H311.019C311.019 28.7381 290.717 7.49135 265.763 7.49135C240.808 7.49135 220.506 28.7381 220.506 54.8537H218.539C218.539 27.6026 239.723 5.43213 265.763 5.43213C291.802 5.43214 312.987 27.6026 312.987 54.8537Z" fill="#F50057"/>
</svg>
