<svg width="600" height="300" viewBox="0 0 600 300" fill="none" xmlns="http://www.w3.org/2000/svg">
<g clip-path="url(#clip0)">
<path opacity="0.1" d="M553.997 237.225C553.329 238.578 552.663 239.913 551.998 241.231C550.961 243.277 549.937 245.284 548.927 247.25C548.478 248.122 548.028 248.977 547.59 249.833C542.635 259.344 538.008 267.757 534.079 274.675C530.513 280.944 525.218 286.197 518.75 289.882C512.281 293.568 504.877 295.552 497.312 295.625L409.932 296.519H409.01L401.52 296.595L395.113 296.659L375.464 296.86H374.669L364.667 296.963H364.361L302.709 297.591L247.677 298.132L241.275 298.197L201.518 298.603H201.472L175.687 298.863H175.411L93.8796 299.691L69.4894 299.94C64.2845 299.995 59.1015 299.298 54.1223 297.872C45.4576 295.413 37.6706 290.781 31.599 284.474C21.1238 273.63 13.4893 260.979 8.36118 247.25C7.61981 245.269 6.92838 243.262 6.28689 241.231C-11.4656 184.849 10.1762 112.108 49.1268 63.4296C50.7593 61.3941 52.4187 59.4091 54.105 57.4747L54.1454 57.4314C66.1244 43.6161 79.5554 32.0746 93.8623 23.8677C119.215 9.29996 147.304 5.19653 174.932 17.4256C198.309 27.7762 220.135 32.643 241.292 33.9639C243.43 34.0938 245.568 34.1912 247.694 34.2508C296.227 35.6854 341.711 19.2554 395.124 8.65034C397.25 8.22809 399.382 7.81125 401.531 7.41606C439.635 0.291893 481.904 -3.46507 532.171 4.43322C537.394 5.23478 542.547 6.39272 547.59 7.89786C549.807 8.56914 551.942 9.29094 553.997 10.0633C577.99 19.2337 591.075 36.178 596.636 57.4097C597.162 59.3803 597.617 61.3851 598.001 63.4242C607.86 114.495 578.987 186.939 553.997 237.225Z" fill="#202020"/>
<g opacity="0.1">
<path opacity="0.1" d="M93.8617 23.8681V299.751L69.4715 300C64.2666 300.055 59.0836 299.358 54.1044 297.932V57.4318H54.1448C66.1238 43.6003 79.5548 32.0587 93.8617 23.8681Z" fill="#F9F8FF"/>
<path opacity="0.1" d="M598.03 63.4299H49.1261C50.7586 61.3945 52.4181 59.4095 54.1044 57.4751V57.4318H596.664C597.19 59.3915 597.645 61.3909 598.03 63.4299Z" fill="#F9F8FF"/>
<path opacity="0.1" d="M553.997 10.0691V241.226H551.997C550.96 243.272 549.937 245.279 548.926 247.245C548.477 248.117 548.027 248.972 547.59 249.828V7.88203C549.806 8.55331 551.942 9.28232 553.997 10.0691Z" fill="#F9F8FF"/>
<path opacity="0.1" d="M401.531 7.40024V296.617L395.124 296.682V8.63452C397.25 8.21226 399.382 7.79542 401.531 7.40024Z" fill="#F9F8FF"/>
<path opacity="0.1" d="M247.693 34.2349V298.186L241.292 298.251V33.948C243.429 34.078 245.567 34.1537 247.693 34.2349Z" fill="#F9F8FF"/>
<path opacity="0.1" d="M551.997 241.231C550.96 243.277 549.937 245.284 548.926 247.251H8.36054C7.61918 245.269 6.92775 243.263 6.28625 241.231H551.997Z" fill="#F9F8FF"/>
</g>
<path d="M132.87 143.907H121.922V175.121H132.87V143.907Z" fill="#3F3D56"/>
<path d="M427.494 142.283H416.546V175.305H427.494V142.283Z" fill="#3F3D56"/>
<path d="M497.311 288.892V295.929L409.776 296.687L408.843 296.703L375.573 296.99L374.778 297.001L364.666 297.082H364.366L302.725 297.618L201.54 298.5H201.454L175.727 298.728L175.45 298.733L61.1339 299.719V291.598L88.0133 276.44L141.945 276.018L143.097 276.013L143.478 276.007L144.63 275.991L170.524 275.791L171.682 275.785L172.051 275.78L173.203 275.775L181.506 275.71L181.725 275.704L202.209 275.542H202.376L362.211 274.275L366.124 274.248H366.516L369.5 274.221L391.194 274.053L392.346 274.037L393.412 274.026H393.965L400.713 273.977L402.049 273.961L403.841 273.95L409.459 273.902L418.373 273.831L419.525 273.82L421.53 273.809H421.905L464.952 273.463L497.311 288.892Z" fill="#65617D"/>
<path opacity="0.2" d="M497.311 288.892V295.929L409.776 296.687L408.843 296.703L375.573 296.99L374.778 297.001L364.666 297.082H364.366L302.725 297.618L201.54 298.5H201.454L175.727 298.728L175.45 298.733L61.1339 299.719V291.598L88.0133 276.44L141.945 276.018L143.097 276.013L143.478 276.007L144.63 275.991L170.524 275.791L171.682 275.785L172.051 275.78L173.203 275.775L181.506 275.71L181.725 275.704L202.209 275.542H202.376L362.211 274.275L366.124 274.248H366.516L369.5 274.221L391.194 274.053L392.346 274.037L393.412 274.026H393.965L400.713 273.977L402.049 273.961L403.841 273.95L409.459 273.902L418.373 273.831L419.525 273.82L421.53 273.809H421.905L464.952 273.463L497.311 288.892Z" fill="black"/>
<path d="M170.61 261.829V275.087C170.611 275.715 170.421 276.33 170.064 276.861C169.707 277.392 169.197 277.817 168.594 278.086C168.144 278.291 167.653 278.402 167.153 278.411L147.044 278.812C146.507 278.824 145.974 278.718 145.488 278.503C144.874 278.238 144.354 277.814 143.989 277.279C143.624 276.744 143.431 276.123 143.431 275.488V261.829H170.61Z" fill="#3F3D56"/>
<path opacity="0.1" d="M170.61 261.829V275.087C170.611 275.715 170.421 276.33 170.064 276.861C169.707 277.392 169.197 277.817 168.594 278.086C168.144 278.291 167.653 278.402 167.153 278.411L147.044 278.812C146.507 278.824 145.974 278.718 145.488 278.503C144.874 278.238 144.354 277.814 143.989 277.279C143.624 276.744 143.431 276.123 143.431 275.488V261.829H170.61Z" fill="black"/>
<path d="M171.763 261.829V275.087C171.763 275.715 171.574 276.33 171.217 276.861C170.86 277.392 170.35 277.817 169.746 278.086C169.297 278.291 168.805 278.402 168.306 278.411L148.197 278.812C147.659 278.824 147.127 278.718 146.641 278.503C146.026 278.238 145.506 277.814 145.141 277.279C144.777 276.744 144.583 276.123 144.584 275.488V261.829H171.763Z" fill="#3F3D56"/>
<path d="M419.525 261.829H392.346V278.882H419.525V261.829Z" fill="#3F3D56"/>
<path opacity="0.1" d="M419.525 261.829H392.346V278.882H419.525V261.829Z" fill="black"/>
<path d="M418.373 261.829H391.194V278.882H418.373V261.829Z" fill="#3F3D56"/>
<path opacity="0.1" d="M132.87 143.902V147.004L121.922 146.738V143.902H132.87Z" fill="black"/>
<path d="M204.928 56.517L191.774 145.298C191.691 145.865 191.388 146.384 190.923 146.754C190.459 147.125 189.865 147.322 189.256 147.307L83.9281 144.741L81.9287 144.692C81.5806 144.684 81.2381 144.608 80.9236 144.467C80.6092 144.327 80.3297 144.126 80.1035 143.877C79.8774 143.628 79.7096 143.337 79.611 143.024C79.5125 142.71 79.4855 142.38 79.5318 142.056L94.2996 49.1167C94.3947 48.5411 94.7162 48.0198 95.2006 47.656C95.6849 47.2922 96.2968 47.1122 96.9155 47.1516L202.624 53.8752C202.965 53.8938 203.298 53.9786 203.602 54.1242C203.907 54.2699 204.176 54.4732 204.392 54.7215C204.609 54.9697 204.768 55.2574 204.861 55.5665C204.953 55.8755 204.976 56.1991 204.928 56.517V56.517Z" fill="#65617D"/>
<path d="M101.369 53.6803L90.2316 135.603L187.032 138.488L198.936 59.4511L101.369 53.6803Z" fill="#F50057"/>
<path d="M336.461 52.4135H224.674C222.978 52.4135 221.603 53.7054 221.603 55.2989V143.36C221.603 144.954 222.978 146.246 224.674 146.246H336.461C338.158 146.246 339.533 144.954 339.533 143.36V55.2989C339.533 53.7054 338.158 52.4135 336.461 52.4135Z" fill="#65617D"/>
<path d="M334.341 58.7311H227.169V136.864H334.341V58.7311Z" fill="#F50057"/>
<path opacity="0.1" d="M427.494 142.278V144.329L416.546 144.54V142.278H427.494Z" fill="black"/>
<path d="M476.891 140.545C476.906 140.77 476.874 140.995 476.794 141.207C476.715 141.419 476.591 141.614 476.43 141.779C476.268 141.945 476.073 142.079 475.855 142.172C475.637 142.265 475.401 142.316 475.162 142.321L367.299 144.416C366.851 144.425 366.416 144.274 366.082 143.994C365.747 143.714 365.538 143.325 365.496 142.906L356.225 52.3486C356.202 52.1239 356.228 51.8972 356.301 51.6822C356.374 51.4672 356.493 51.2684 356.65 51.0979C356.807 50.9273 357 50.7885 357.216 50.6899C357.432 50.5913 357.667 50.5349 357.907 50.5242L464.952 45.5222L466.105 45.468C466.563 45.4453 467.012 45.5907 467.358 45.8736C467.705 46.1564 467.92 46.5544 467.96 46.9838L476.891 140.545Z" fill="#65617D"/>
<path d="M362.384 55.8457L460.147 51.3309L468.404 133.616L371.413 135.781L362.384 55.8457Z" fill="#F50057"/>
<path opacity="0.1" d="M476.891 140.545C476.907 140.77 476.874 140.995 476.794 141.207C476.715 141.419 476.591 141.614 476.43 141.779C476.268 141.945 476.073 142.079 475.855 142.172C475.637 142.265 475.401 142.316 475.162 142.321L464.952 45.5222L466.105 45.468C466.563 45.4453 467.012 45.5907 467.358 45.8736C467.705 46.1564 467.92 46.5544 467.96 46.9838L476.891 140.545Z" fill="black"/>
<path opacity="0.1" d="M96.9328 47.1462L83.9281 144.741L81.9287 144.692C81.5806 144.684 81.2381 144.608 80.9236 144.467C80.6092 144.327 80.3297 144.126 80.1035 143.877C79.8774 143.628 79.7096 143.337 79.611 143.024C79.5125 142.71 79.4855 142.38 79.5318 142.056L94.2996 49.1167C94.3936 48.537 94.7171 48.0121 95.2053 47.6468C95.6934 47.2814 96.3104 47.1027 96.9328 47.1462V47.1462Z" fill="black"/>
<path opacity="0.1" d="M132.87 165.875H121.922V175.121H132.87V165.875Z" fill="black"/>
<path opacity="0.1" d="M171.763 261.824V264.514L144.584 265.197V261.824H171.763Z" fill="black"/>
<path d="M219.731 169.096V260.151C219.724 260.707 219.49 261.239 219.077 261.637C218.664 262.035 218.104 262.269 217.512 262.29L107.085 265.05H107.056C106.455 265.043 105.881 264.816 105.455 264.416C105.03 264.017 104.788 263.477 104.78 262.912V169.096C104.788 168.531 105.03 167.991 105.455 167.592C105.881 167.192 106.455 166.965 107.056 166.958H217.455C218.056 166.965 218.631 167.192 219.056 167.592C219.481 167.991 219.723 168.531 219.731 169.096V169.096Z" fill="#65617D"/>
<path opacity="0.1" d="M107.085 166.958V265.05H107.056C106.455 265.043 105.881 264.816 105.455 264.416C105.03 264.017 104.788 263.477 104.78 262.912V169.096C104.788 168.531 105.03 167.991 105.455 167.592C105.881 167.192 106.455 166.965 107.056 166.958H107.085Z" fill="black"/>
<path d="M112.127 172.772H214.401V253.027L112.127 255.192V172.772Z" fill="#F9F8FF"/>
<path opacity="0.1" d="M427.494 165.875H416.546V175.305H427.494V165.875Z" fill="black"/>
<path opacity="0.1" d="M418.373 261.824V265.294L391.194 264.612V261.824H418.373Z" fill="black"/>
<path d="M454.241 169.096V262.912C454.233 263.482 453.987 264.026 453.556 264.426C453.124 264.826 452.542 265.05 451.936 265.05V265.05L341.486 262.29C340.895 262.269 340.335 262.035 339.922 261.637C339.509 261.239 339.274 260.707 339.267 260.151V169.096C339.275 168.531 339.517 167.991 339.942 167.592C340.368 167.192 340.942 166.965 341.543 166.958H451.942C452.547 166.959 453.128 167.184 453.558 167.584C453.988 167.984 454.233 168.527 454.241 169.096V169.096Z" fill="#65617D"/>
<path opacity="0.1" d="M454.241 169.096V262.912C454.233 263.482 453.987 264.026 453.556 264.426C453.124 264.826 452.542 265.05 451.936 265.05V265.05V166.958C452.542 166.958 453.124 167.182 453.556 167.582C453.987 167.983 454.233 168.527 454.241 169.096Z" fill="black"/>
<path d="M446.894 172.772H344.62V253.027L446.894 255.192V172.772Z" fill="#F9F8FF"/>
<path d="M336.41 169.096V260.151C336.403 260.707 336.168 261.239 335.755 261.637C335.342 262.035 334.782 262.269 334.191 262.29L223.764 265.05C223.158 265.05 222.576 264.826 222.144 264.426C221.713 264.026 221.467 263.482 221.459 262.912V169.096C221.467 168.531 221.709 167.991 222.134 167.592C222.559 167.192 223.134 166.965 223.735 166.958H334.134C334.735 166.965 335.309 167.192 335.735 167.592C336.16 167.991 336.402 168.531 336.41 169.096V169.096Z" fill="#65617D"/>
<path d="M228.806 172.772H331.08V253.027L228.806 255.192V172.772Z" fill="#F9F8FF"/>
<path opacity="0.1" d="M497.311 288.892V295.929L409.776 296.687L408.843 296.703L375.573 296.99L374.778 297.001L364.666 297.082H364.366L302.725 297.618L201.54 298.5H201.454L175.727 298.728L175.45 298.733L61.1339 299.719V291.598L177.819 290.878H178.095L201.713 290.727H201.823L364.931 289.714H365.098L365.196 289.709H365.467L368.227 289.693H369.068L411.989 289.422L414.524 289.411L415.089 289.406L497.311 288.892Z" fill="black"/>
<path d="M280.755 175.121C297.09 175.121 310.331 162.68 310.331 147.334C310.331 131.987 297.09 119.546 280.755 119.546C264.421 119.546 251.179 131.987 251.179 147.334C251.179 162.68 264.421 175.121 280.755 175.121Z" fill="#FBBEBE"/>
<path d="M310.337 204.176C310.337 204.176 253.006 210.672 258.48 204.176C260.462 201.826 261.009 194.864 260.9 186.934C260.865 184.525 260.773 182.029 260.64 179.544C260.007 167.634 258.48 155.995 258.48 155.995C258.48 155.995 308.608 133.8 302.846 151.394C300.542 158.502 301.296 168.484 303.048 177.855C303.561 180.589 304.154 183.269 304.777 185.813C306.295 192.019 308.151 198.148 310.337 204.176V204.176Z" fill="#FBBEBE"/>
<path opacity="0.1" d="M310.337 204.176C310.337 204.176 253.006 210.672 258.48 204.176C260.462 201.826 261.009 194.864 260.9 186.934C269.64 183.426 280.761 186.04 280.761 186.04C292.469 183.848 299.977 184.276 304.777 185.813C306.295 192.019 308.151 198.148 310.337 204.176V204.176Z" fill="black"/>
<path d="M201.517 299.112V298.657L302.708 297.623L364.361 297.082H364.533L364.47 297.883L364.557 297.082H364.666V296.99L365.455 289.709L365.755 286.953L365.847 286.093L365.928 285.373L369.489 274.215L373.05 263.075L376.046 253.693L380.621 239.358C380.621 239.358 378.028 233.674 376.587 232.05C375.147 230.426 373.706 219.328 373.706 219.328C373.706 219.328 361.411 208.322 356.035 207.056C353.782 206.514 349.334 205.794 344.609 204.89C342.84 204.555 341.025 204.197 339.279 203.808C338.294 203.596 337.326 203.374 336.398 203.152C334.593 202.729 332.813 202.212 331.068 201.604C330.153 201.292 329.283 200.876 328.475 200.365C324.24 197.447 313.627 197.116 313.218 197.116C313.217 197.104 313.217 197.091 313.218 197.079V197.03C313.233 196.803 313.233 196.575 313.218 196.348C313.218 196.131 313.218 195.877 313.166 195.59C313.166 195.503 313.166 195.411 313.126 195.319C313.097 195.124 313.062 194.919 313.01 194.702C312.993 194.605 312.97 194.509 312.941 194.415C312.774 193.763 312.533 193.129 312.221 192.526C312.181 192.439 312.129 192.347 312.083 192.261C311.8 191.76 311.473 191.284 311.103 190.837C311.028 190.745 310.948 190.647 310.861 190.555C310.389 190.032 309.864 189.554 309.294 189.126C309.138 189.012 308.977 188.893 308.81 188.785C308.717 188.714 308.619 188.649 308.516 188.59L308.003 188.276L307.525 188.016C307.104 187.8 306.661 187.589 306.177 187.388C306.027 187.323 305.866 187.264 305.704 187.204C305.543 187.145 305.289 187.053 305.076 186.977H305.042L304.61 186.815C304.281 186.712 303.947 186.62 303.595 186.528L303.06 186.398L302.483 186.273L301.907 186.159C301.331 186.051 300.714 185.954 300.069 185.878L299.412 185.802L298.738 185.737L298.041 185.683L297.05 185.629L295.898 185.591C290.815 185.591 285.747 186.097 280.778 187.101C277.326 186.38 273.791 186.074 270.257 186.192H269.756L269.18 186.224H268.811L268.067 186.289C267.82 186.289 267.566 186.338 267.318 186.371C267.071 186.403 266.811 186.43 266.564 186.468L266.183 186.528C265.809 186.587 265.429 186.652 265.031 186.728C264.904 186.75 264.777 186.777 264.651 186.809C264.149 186.912 263.648 187.036 263.153 187.177C262.905 187.242 262.657 187.318 262.409 187.399C262.283 187.432 262.161 187.475 262.04 187.518L261.672 187.643L261.309 187.778L260.877 187.941C260.658 188.027 260.444 188.119 260.231 188.217C260.11 188.265 259.989 188.319 259.874 188.379C259.759 188.439 259.638 188.487 259.528 188.547C258.226 189.179 257.021 189.977 255.95 190.918L255.656 191.183L255.368 191.459C255.27 191.551 255.178 191.649 255.086 191.746C254.71 192.132 254.36 192.539 254.037 192.964C253.945 193.078 253.859 193.192 253.772 193.311C253.406 193.817 253.075 194.345 252.781 194.891C252.706 195.021 252.637 195.157 252.568 195.287C252.098 196.201 251.712 197.152 251.416 198.129C251.308 198.49 251.21 198.851 251.122 199.211C251.122 199.211 238.924 204.268 228.806 207.927C226.115 208.902 223.58 209.784 221.459 210.45C220.843 210.645 220.267 210.823 219.731 210.991C218.568 211.386 217.359 211.648 216.13 211.771C215.55 211.78 214.972 211.83 214.401 211.922C209.751 212.632 201.782 215.712 200.912 218.803C200.842 219.05 200.822 219.307 200.855 219.561C200.855 219.561 200.855 219.599 200.855 219.62C201.431 223.41 197.398 222.868 197.398 222.868C197.398 222.868 195.957 232.883 193.94 235.59C192.483 237.539 191.486 241.886 191.359 245.167C191.287 246.189 191.372 247.215 191.613 248.214C191.613 248.242 191.613 248.269 191.613 248.29C191.843 249.016 191.29 250.997 190.351 253.536C189.331 256.324 187.844 259.789 186.415 263.058C184.26 267.995 182.232 272.478 182.105 273.463C182.054 273.902 181.904 274.686 181.696 275.699C180.855 279.824 178.988 287.679 178.066 290.857C177.381 293.228 176.384 296.476 175.698 298.706C175.698 298.771 175.658 298.836 175.641 298.896L201.471 298.657V299.112H201.552H201.517Z" fill="#F50057"/>
<path opacity="0.1" d="M210.944 235.303C210.944 235.303 243.787 251.273 255.599 249.378L210.944 235.303Z" fill="black"/>
<path opacity="0.1" d="M277.782 228.807C277.782 228.807 309.761 238.551 320.42 239.905C331.08 241.258 277.782 228.807 277.782 228.807Z" fill="black"/>
<path opacity="0.1" d="M313.252 197.452C296.543 200.343 265.083 199.72 251.485 199.282C256.469 182.5 280.773 188.206 280.773 188.206C310.856 182.565 313.16 194.269 313.252 197.452Z" fill="black"/>
<path d="M313.252 196.369C296.543 199.26 265.083 198.638 251.485 198.199C256.469 181.417 280.773 187.123 280.773 187.123C310.856 181.482 313.16 193.186 313.252 196.369Z" fill="#F50057"/>
<path d="M401.951 270.356C401.951 270.356 421.634 267.514 422.02 275.634C422.406 283.754 411.983 289.427 411.983 289.427L401.951 270.356Z" fill="#FBBEBE"/>
<path opacity="0.1" d="M303.048 177.855C302.201 178.211 301.336 178.525 300.455 178.797C294.244 180.811 287.981 182.841 281.441 183.577C274.901 184.314 268.039 183.664 262.334 180.6C261.735 180.282 261.158 179.929 260.606 179.544C259.972 167.634 258.445 155.995 258.445 155.995C258.445 155.995 308.574 133.8 302.812 151.394C300.519 158.502 301.296 168.484 303.048 177.855Z" fill="black"/>
<path d="M272.642 103.901C271.82 104.105 270.958 104.126 270.126 103.962C269.294 103.797 268.514 103.452 267.849 102.954L269.047 104.518C268.341 104.595 267.625 104.526 266.95 104.315C266.276 104.105 265.658 103.759 265.14 103.3C265.032 104.701 265.094 106.109 265.325 107.496C263.342 107.586 261.389 107.01 259.816 105.872C259.786 106.36 259.915 106.846 260.187 107.263C260.459 107.68 260.861 108.009 261.338 108.205C259.346 107.982 257.335 108.447 255.681 109.513C254.027 110.58 252.843 112.176 252.349 114.003L255.357 114.263C252.993 114.737 250.871 115.953 249.341 117.711C248.419 118.794 247.716 120.18 248.12 121.501C248.523 122.822 250.471 123.666 251.531 122.724C250.023 124.415 248.927 126.396 248.319 128.527C247.712 130.658 247.609 132.889 248.016 135.061C248.29 135.987 248.379 136.953 248.281 137.909C248.091 138.802 247.492 139.576 247.192 140.448C246.616 142.029 247.163 143.745 247.676 145.32L250.378 153.668C251.358 156.683 252.332 159.704 253.611 162.622C254.517 164.466 255.287 166.367 255.916 168.311C256.642 170.931 256.67 173.8 258.22 176.09C259.283 177.531 260.703 178.708 262.357 179.517C268.056 182.581 274.941 183.231 281.464 182.495C287.986 181.758 294.244 179.728 300.45 177.714C301.828 177.324 303.151 176.779 304.391 176.09C308.683 173.449 309.64 168.046 310.441 163.287C311.334 157.982 312.526 152.688 314.641 147.697C315.897 144.725 317.522 141.709 317.246 138.526C316.894 134.298 313.333 130.871 312.452 126.714C312.156 125.324 312.17 123.892 312.492 122.508C312.765 121.683 312.918 120.827 312.947 119.963C312.849 118.22 311.328 116.878 309.899 115.757C306.799 113.324 303.599 111.026 300.3 108.86C300.133 107.777 301.7 107.312 302.409 106.457C303.411 105.249 302.374 103.333 300.853 102.77C299.332 102.207 297.626 102.575 296.042 102.949C296.145 102.187 295.984 101.414 295.582 100.745C295.18 100.076 294.559 99.5465 293.811 99.2357C293.064 98.9249 292.229 98.8491 291.432 99.0197C290.635 99.1902 289.917 99.598 289.387 100.182C288.966 99.2757 288.294 98.492 287.44 97.913C286.587 97.334 285.583 96.981 284.535 96.8909C280.715 96.6094 280.64 99.354 278.197 100.864C275.754 102.375 273.737 100.383 271.859 98.9318C271.514 99.7519 271.404 100.643 271.542 101.515C271.68 102.388 272.059 103.211 272.642 103.901V103.901Z" fill="#3F3D56"/>
<path d="M416.546 286.596C416.546 286.596 416.033 287.744 415.089 289.406C413.659 291.963 411.919 294.355 409.903 296.535L409.747 296.692H408.814L375.544 296.979H374.749L374.651 296.871L368.198 289.676L365.767 286.964L365.669 286.851L365.461 286.623L365.346 286.493L365.196 286.326L360.466 281.053L362.194 274.286L365.138 262.885L365.213 262.609L365.79 260.444L366.199 258.819L367.57 253.525L372.272 235.309L380.627 239.369L389.436 253.985L394.167 261.835H396.76C397.25 261.835 398.373 262.723 399.503 263.746C399.906 264.108 400.309 264.493 400.655 264.828C401.681 265.825 402.493 266.68 402.493 266.68C402.493 266.68 406.693 266.767 407.823 269.874C407.881 270.024 407.929 270.178 407.967 270.334C408.342 271.555 408.829 272.744 409.425 273.885C410.168 275.406 411.101 277.133 412.046 278.86C413.804 282.027 415.59 285.042 416.247 286.136L416.327 286.271L416.546 286.596Z" fill="#F50057"/>
<path opacity="0.1" d="M367.051 262.154L366.994 262.928V262.982L366.896 264.228L366.13 274.248L365.202 286.32L364.937 289.72L364.361 296.996V297.088L302.708 297.629L201.535 298.657V299.112H201.454V298.657V298.506L201.713 290.732L202.209 275.542L202.635 262.663L202.675 261.38C202.701 260.606 202.894 259.844 203.243 259.142C203.591 258.44 204.089 257.813 204.705 257.297C205.321 256.782 206.042 256.39 206.824 256.146C207.607 255.901 208.434 255.809 209.256 255.875C211.975 256.091 215.507 256.356 219.731 256.638L221.459 256.757C245.85 258.349 290.925 260.406 336.41 257.84C337.366 257.791 338.328 257.737 339.291 257.672C346.343 257.255 353.39 256.719 360.368 256.048C361.25 255.961 362.141 256.057 362.98 256.329C363.818 256.601 364.583 257.042 365.22 257.622C365.857 258.201 366.351 258.905 366.668 259.683C366.984 260.462 367.115 261.296 367.051 262.127V262.154Z" fill="black"/>
<path d="M201.517 299.112V298.657L302.708 297.623L364.361 297.082H364.533V296.99L365.11 289.714L365.357 286.466L366.302 274.226L367.046 264.536V264.298C367.08 263.851 367.059 263.403 366.982 262.961C366.986 262.943 366.986 262.925 366.982 262.907C366.824 261.993 366.428 261.13 365.83 260.395C365.195 259.63 364.364 259.031 363.415 258.652C362.465 258.273 361.428 258.127 360.402 258.229C353.425 258.901 346.378 259.437 339.325 259.853C338.363 259.918 337.401 259.973 336.444 260.021C290.96 262.56 245.884 260.503 221.494 258.939L219.765 258.82C215.542 258.538 212.01 258.278 209.29 258.056C207.794 257.938 206.304 258.344 205.108 259.197C203.912 260.049 203.095 261.288 202.814 262.674C202.756 262.967 202.721 263.264 202.71 263.562L202.318 275.558L201.782 290.754L201.529 298.528V298.679V299.134L201.517 299.112Z" fill="#3F3D56"/>
<path opacity="0.1" d="M367.224 265.949L366.516 274.248L365.461 286.618L365.196 289.714L364.62 296.649L364.585 296.995V297.088L364.499 297.889L364.562 297.088H364.395L302.743 297.629L201.535 298.657V298.506L201.817 290.732L202.393 275.542L202.762 265.446C202.78 264.871 202.951 264.31 203.259 263.814C203.567 263.318 204.002 262.901 204.525 262.604C205.178 262.228 205.94 262.057 206.703 262.116C207.913 262.208 209.4 262.317 211.134 262.436C213.952 262.631 217.426 262.858 221.471 263.096C228.961 263.54 238.359 264.016 249.128 264.406C279.09 265.489 319.539 265.852 357.959 262.69C359.688 262.549 361.474 262.392 363.22 262.235C363.911 262.171 364.607 262.295 365.225 262.593C365.4 262.675 365.566 262.773 365.72 262.885C366.222 263.227 366.619 263.686 366.873 264.217C366.932 264.322 366.98 264.433 367.017 264.547C367.19 264.995 367.261 265.473 367.224 265.949V265.949Z" fill="black"/>
<path opacity="0.1" d="M171.763 273.36V275.087C171.763 275.715 171.574 276.33 171.217 276.861C170.86 277.392 170.35 277.817 169.746 278.086L146.641 278.503C146.026 278.238 145.506 277.814 145.141 277.279C144.777 276.744 144.583 276.123 144.584 275.488V273.864L171.763 273.36Z" fill="black"/>
<path d="M172.051 279.104L141.945 279.645V274.952L172.051 274.41V279.104Z" fill="#3F3D56"/>
<path opacity="0.1" d="M172.051 279.104L141.945 279.645V274.952L172.051 274.41V279.104Z" fill="black"/>
<path d="M173.203 279.104L143.097 279.645V274.952L173.203 274.41V279.104Z" fill="#3F3D56"/>
<g opacity="0.1">
<path opacity="0.1" d="M272.879 102.126C272.316 101.438 271.942 100.632 271.79 99.7762C271.651 100.612 271.734 101.468 272.032 102.266C272.318 102.242 272.601 102.195 272.879 102.126Z" fill="black"/>
<path opacity="0.1" d="M265.561 105.72C265.452 105.057 265.381 104.388 265.348 103.717C265.348 104.383 265.348 105.054 265.348 105.726L265.561 105.72Z" fill="black"/>
<path opacity="0.1" d="M312.521 123.785C312.552 123.303 312.622 122.823 312.728 122.351C313.001 121.527 313.156 120.673 313.189 119.812C313.176 119.618 313.145 119.426 313.097 119.238C312.999 119.736 312.843 120.234 312.728 120.727C312.498 121.731 312.428 122.762 312.521 123.785Z" fill="black"/>
<path opacity="0.1" d="M300.536 107.057L301.164 107.485C301.693 107.125 302.189 106.723 302.645 106.283C302.862 106.001 302.996 105.671 303.034 105.325C303.073 104.98 303.014 104.63 302.864 104.313C302.806 104.436 302.733 104.553 302.645 104.659C301.936 105.515 300.369 105.985 300.536 107.057Z" fill="black"/>
<path opacity="0.1" d="M253.19 112.265C252.98 112.66 252.812 113.073 252.689 113.499C253.59 113.027 254.561 112.682 255.57 112.476L253.19 112.265Z" fill="black"/>
<path opacity="0.1" d="M261.136 106.375C260.757 106.179 260.395 105.957 260.053 105.709C260.038 105.924 260.056 106.139 260.105 106.348C260.449 106.333 260.793 106.342 261.136 106.375V106.375Z" fill="black"/>
<path opacity="0.1" d="M317.47 138.272C317.234 140.897 315.932 143.425 314.877 145.915C312.763 150.907 311.57 156.201 310.677 161.512C309.876 166.27 308.948 171.673 304.627 174.309C303.392 175.002 302.07 175.548 300.691 175.933C294.48 177.953 288.217 179.977 281.677 180.713C275.137 181.45 268.275 180.805 262.571 177.741C260.917 176.931 259.497 175.755 258.434 174.315C256.895 172.025 256.866 169.156 256.129 166.536C255.5 164.59 254.73 162.687 253.824 160.84C252.551 157.928 251.571 154.886 250.597 151.892C249.695 149.109 248.794 146.325 247.895 143.539C247.599 142.701 247.379 141.841 247.238 140.968C247.013 142.353 247.451 143.804 247.895 145.163C248.794 147.953 249.695 150.737 250.597 153.516C251.571 156.531 252.551 159.552 253.824 162.465C254.73 164.311 255.5 166.214 256.129 168.16C256.855 170.78 256.884 173.649 258.434 175.939C259.497 177.379 260.917 178.555 262.571 179.365C268.275 182.43 275.155 183.074 281.677 182.338C288.2 181.601 294.457 179.577 300.691 177.557C302.07 177.172 303.392 176.626 304.627 175.933C308.919 173.297 309.876 167.894 310.677 163.136C311.57 157.825 312.763 152.531 314.877 147.54C316.133 144.573 317.758 141.558 317.482 138.369C317.482 138.337 317.47 138.304 317.47 138.272Z" fill="black"/>
<path opacity="0.1" d="M248.506 136.177C248.506 136.177 248.506 136.139 248.506 136.117C248.61 135.162 248.52 134.198 248.241 133.275C248.126 132.681 248.051 132.081 248.016 131.478C247.95 132.622 248.025 133.771 248.241 134.899C248.333 135.321 248.437 135.749 248.506 136.177Z" fill="black"/>
<path opacity="0.1" d="M250.263 122.935C250.706 122.236 251.209 121.571 251.767 120.948C250.713 121.896 248.765 121.051 248.356 119.736C248.205 120.268 248.205 120.828 248.356 121.36C248.498 121.757 248.749 122.112 249.084 122.389C249.419 122.665 249.826 122.854 250.263 122.935V122.935Z" fill="black"/>
</g>
<path opacity="0.1" d="M394.173 261.829C394.173 261.829 395.999 268.055 394.173 273.468C392.346 278.882 394.173 261.829 394.173 261.829Z" fill="black"/>
<path opacity="0.1" d="M401.951 268.179C401.951 268.179 402.718 276.083 400.989 277.485C399.261 278.887 401.951 268.179 401.951 268.179Z" fill="black"/>
<path d="M114.656 185.607L173.203 185.066" stroke="#202020" stroke-width="2" stroke-miterlimit="10"/>
<path d="M114.656 192.358L173.203 191.822" stroke="#202020" stroke-width="2" stroke-miterlimit="10"/>
<path d="M114.656 199.114L173.203 198.573" stroke="#202020" stroke-width="2" stroke-miterlimit="10"/>
</g>
<defs>
<clipPath id="clip0">
<rect width="600" height="300" fill="white"/>
</clipPath>
</defs>
</svg>
